<svg xmlns="http://www.w3.org/2000/svg" width="512" height="512" style="shape-rendering:geometricPrecision;text-rendering:geometricPrecision;image-rendering:optimizeQuality;fill-rule:evenodd;clip-rule:evenodd"><path style="opacity:.99" fill="#e5e8ec" d="M347.5 323.5a2.428 2.428 0 0 0-2 .5c-6.5 7.833-13.667 15-21.5 21.5a2.428 2.428 0 0 0-.5 2c-55.847 43.4-117.847 54.9-186 34.5C74.748 358.915 33.58 315.415 14 251.5c-16.79-68.164-2.457-128.831 43-182C113.525 12.574 180.692-5.26 258.5 16 335.262 43.995 379.429 98.496 391 179.5c4.504 53.969-9.996 101.969-43.5 144Z"/><path style="opacity:1" fill="#4a89dc" d="M188.5 31.5c59.763-1.527 108.263 20.806 145.5 67 41.722 61.603 44.388 124.936 8 190-41.13 59.804-97.963 85.304-170.5 76.5C98.855 349.355 53.355 305.522 35 233.5 23.856 164.907 45.023 108.74 98.5 65c26.985-19.382 56.985-30.55 90-33.5Z"/><path style="opacity:1" fill="#87bcf3" d="M297.5 279.5c-.454-2.64-1.621-4.973-3.5-7a4304.043 4304.043 0 0 1-55-69c-4.38-4.843-9.046-5.177-14-1a1566.884 1566.884 0 0 0-29.5 38c-2.216-.703-4.049-2.036-5.5-4l-9.5-11.5c-4.824-2.446-8.991-1.613-12.5 2.5a3148.29 3148.29 0 0 0-43.5 52c-8.007.166-16.007 0-24-.5-2.602-.935-4.102-2.768-4.5-5.5a5550.223 5550.223 0 0 1 0-149c.833-2.167 2.333-3.667 4.5-4.5 66-.667 132-.667 198 0a6.978 6.978 0 0 1 3.5 2.5 2870.793 2870.793 0 0 1 1 151c-.625 3.125-2.459 5.125-5.5 6Z"/><path style="opacity:1" fill="#fdcd56" d="M142.5 143.5c17.5-.668 25.666 7.665 24.5 25-4.165 11.484-12.332 16.317-24.5 14.5-13.364-5.897-17.53-15.731-12.5-29.5 3.191-4.663 7.358-7.997 12.5-10Z"/><path style="opacity:1" fill="#f4f6f9" d="M297.5 279.5h-133a886.4 886.4 0 0 1 31-39 1566.884 1566.884 0 0 1 29.5-38c4.954-4.177 9.62-3.843 14 1a4304.043 4304.043 0 0 0 55 69c1.879 2.027 3.046 4.36 3.5 7Z"/><path style="opacity:1" fill="#e5e8ed" d="M195.5 240.5a886.4 886.4 0 0 0-31 39h-40a3148.29 3148.29 0 0 1 43.5-52c3.509-4.113 7.676-4.946 12.5-2.5l9.5 11.5c1.451 1.964 3.284 3.297 5.5 4Z"/><path style="opacity:.962" fill="#cbd0d8" d="M347.5 323.5c12 12.667 24.333 25 37 37a241.982 241.982 0 0 1-22 23.5 2.428 2.428 0 0 1-2 .5c-12-12.667-24.333-25-37-37a2.428 2.428 0 0 1 .5-2c7.833-6.5 15-13.667 21.5-21.5a2.428 2.428 0 0 1 2-.5Z"/><path style="opacity:.99" fill="#646c77" d="M360.5 384.5a2.428 2.428 0 0 0 2-.5 241.982 241.982 0 0 0 22-23.5 76.332 76.332 0 0 1 8-6.5c3.134-.79 6.134-.457 9 1l94.5 94.5c7.946 11.053 9.612 23.053 5 36-10.142 16.829-24.642 21.995-43.5 15.5a64.735 64.735 0 0 1-9-6 6380.879 6380.879 0 0 1-94.5-95.5 12.494 12.494 0 0 1 0-7 76.332 76.332 0 0 1 6.5-8Z"/></svg>